<svg width="70" height="70" viewBox="0 0 70 70" fill="none" xmlns="http://www.w3.org/2000/svg">
<g clip-path="url(#clip0_897_15630)">
<path d="M35 58C22.3193 58 12 47.6807 12 35C12 22.3193 22.3193 12 35 12C47.6807 12 58 22.3193 58 35C58 47.6807 47.6807 58 35 58ZM35 17.1111C25.1356 17.1111 17.1111 25.1356 17.1111 35C17.1111 44.8644 25.1356 52.8889 35 52.8889C44.8644 52.8889 52.8889 44.8644 52.8889 35C52.8889 25.1356 44.8644 17.1111 35 17.1111ZM35 45.7384C29.0813 45.7384 24.2616 40.9238 24.2616 35C24.2616 29.0762 29.0762 24.2616 35 24.2616C40.9238 24.2616 45.7384 29.0762 45.7384 35C45.7384 40.9238 40.9238 45.7384 35 45.7384ZM35 29.3727C31.8976 29.3727 29.3727 31.8976 29.3727 35C29.3727 38.1024 31.8976 40.6273 35 40.6273C38.1024 40.6273 40.6273 38.1024 40.6273 35C40.6273 31.8976 38.1024 29.3727 35 29.3727Z" fill="#CCCCCC"/>
<path d="M53.1802 44.66L41.7313 40.2951L40.2542 36.9984C40.5047 36.3442 40.6273 35.6747 40.6273 35C40.6273 31.8976 38.1025 29.3727 35 29.3727L32.4445 26.8171V14.5556L35 12C47.6807 12 58 22.3193 58 35C58 37.7804 57.4889 40.5302 56.4769 43.1829L53.1802 44.66ZM45.6516 36.3238L52.4442 38.91C52.7407 37.622 52.8889 36.3136 52.8889 35C52.8889 26.0044 46.2138 18.5371 37.5556 17.2951V24.5733C42.2476 25.7233 45.7385 29.9656 45.7385 35.0051C45.7385 35.4498 45.7129 35.8893 45.6567 36.3289L45.6516 36.3238Z" fill="#CCCCCC"/>
<path d="M46.6635 54.8006L43.1624 53.8959L36.9473 43.3364L37.852 39.8404C38.9509 39.1913 39.8044 38.1844 40.2542 36.9986L43.5509 35.5215L54.9998 39.8864L56.4769 43.183C54.6267 48.0335 51.1409 52.1581 46.6635 54.8006ZM42.4878 42.6822L46.1729 48.9433C47.9771 47.4917 49.49 45.7028 50.6144 43.689L43.8218 41.1028C43.4282 41.6702 42.9784 42.2017 42.4827 42.6873L42.4878 42.6822Z" fill="#CCCCCC"/>
</g>
<defs>
<clipPath id="clip0_897_15630">
<rect width="46" height="46" fill="white" transform="translate(12 12)"/>
</clipPath>
</defs>
</svg>
