<svg width="70" height="70" viewBox="0 0 70 70" fill="none" xmlns="http://www.w3.org/2000/svg">
<g clip-path="url(#clip0_897_15599)">
<path d="M38.767 50.0573H31.233L29.3898 49.3076L27.6144 47.5565H17.5083L14.905 44.9889V21.5676L17.5083 19H52.4865L55.0898 21.5676V44.9889L52.4865 47.5565H42.3804L40.6049 49.3076L38.7618 50.0573H38.767ZM32.3108 44.9222H37.6892L39.4647 43.1711L41.3078 42.4214H49.8884V24.1351H20.1116V42.4214H28.6922L30.5353 43.1711L32.3108 44.9222Z" fill="#CCCCCC"/>
<path d="M56.3967 56.9995H13.6033L11 54.432V44.9885L13.6033 42.4209H28.6922L30.5353 43.1706L32.3108 44.9217H37.6892L39.4647 43.1706L41.3078 42.4209H56.3967L59 44.9885V54.432L56.3967 56.9995ZM16.2066 51.8644H53.7934V47.556H42.3856L40.6102 49.3071L38.767 50.0568H31.233L29.3898 49.3071L27.6144 47.556H16.2066V51.8644Z" fill="#CCCCCC"/>
</g>
<defs>
<clipPath id="clip0_897_15599">
<rect width="48" height="38" fill="white" transform="translate(11 19)"/>
</clipPath>
</defs>
</svg>
