<svg width="70" height="70" viewBox="0 0 70 70" fill="none" xmlns="http://www.w3.org/2000/svg">
<g clip-path="url(#clip0_917_2)">
<path d="M22.6999 39.5324L16.8846 45.2725L20.2794 48.6233L26.0947 42.8833L22.6999 39.5324Z" fill="#CCCCCC"/>
<path d="M35.8154 40.2861L25.335 29.9412V26.5908L41.1252 11H44.5195L54.9999 21.3449V24.6953L39.2049 40.2861H35.8106H35.8154ZM30.424 28.2637L37.5101 35.2582L49.911 23.0177L42.8248 16.0232L30.424 28.2637Z" fill="#CCCCCC"/>
<path d="M32.0179 46.1623L22.4688 45.243L20.3132 43.1152L19.3818 33.6896L20.0732 31.7846L25.335 26.5908H28.7293L39.2097 36.9357V40.2861L33.9479 45.4799L32.0179 46.1623ZM24.8981 40.7174L31.3554 41.3381L34.1159 38.6133L27.0297 31.6187L24.2692 34.3436L24.8981 40.7174Z" fill="#CCCCCC"/>
<path d="M27.2458 58.0004C26.0311 58.0004 24.7301 57.8488 23.333 57.4839C18.6761 56.266 16.266 55.1382 16.1652 55.0908L14 54.0672L16.074 49.7927L18.2344 50.8163C18.2872 50.84 20.4237 51.8257 24.5573 52.9014C28.158 53.8397 30.6593 52.8019 33.559 51.5935C35.2201 50.9016 36.9389 50.1861 38.8737 49.9017C45.9454 48.8497 51.3513 52.3754 51.5817 52.5271L53.5741 53.8492L50.8952 57.7825L48.9028 56.4603C48.874 56.4414 44.7644 53.8208 39.5938 54.5885C38.2591 54.7875 36.8813 55.3562 35.4266 55.9627C33.1797 56.8963 30.5296 58.0004 27.2458 58.0004Z" fill="#CCCCCC"/>
</g>
<defs>
<clipPath id="clip0_917_2">
<rect width="41" height="47" fill="white" transform="translate(14 11)"/>
</clipPath>
</defs>
</svg>
